HIERARCHY
ROOT hip
{
	OFFSET 0.000000 0.000000 0.000000 
	CHANNELS 6 Xposition Yposition Zposition Zrotation Xrotation Yrotation
	JOINT abdomen
	{
		OFFSET 0.000000 3.402643 0.000000 
		CHANNELS 3 Zrotation Xrotation Yrotation
		JOINT chest
		{
			OFFSET 0.000000 8.438565 -0.680529 
			CHANNELS 3 Zrotation Xrotation Yrotation
			JOINT neck
			{
				OFFSET 0.000000 10.207942 -0.272212 
				CHANNELS 3 Zrotation Xrotation Yrotation
				JOINT head
				{
					OFFSET 0.000000 3.130431 0.000000 
					CHANNELS 3 Zrotation Xrotation Yrotation
					End Site
					{
						OFFSET 0.000000 3.130435 0.000000 
					}
				}
			}
			JOINT lCollar
			{
				OFFSET 3.470700 6.669187 -0.816635 
				CHANNELS 3 Zrotation Xrotation Yrotation
				JOINT lShldr
				{
					OFFSET 3.198488 0.000000 0.000000 
					CHANNELS 3 Zrotation Xrotation Yrotation
					JOINT lForeArm
					{
						OFFSET 10.139888 0.000000 0.000000 
						CHANNELS 3 Zrotation Xrotation Yrotation
						JOINT lHand
						{
							OFFSET 8.370511 0.000000 0.000000 
							CHANNELS 3 Zrotation Xrotation Yrotation
							End Site
							{
								OFFSET 4.083176 0.000000 0.000000 
							}
						}
					}
				}
			}
			JOINT rCollar
			{
				OFFSET -3.470700 6.669187 -0.816635 
				CHANNELS 3 Zrotation Xrotation Yrotation
				JOINT rShldr
				{
					OFFSET -3.198488 0.000000 0.000000 
					CHANNELS 3 Zrotation Xrotation Yrotation
					JOINT rForeArm
					{
						OFFSET -10.139888 0.000000 0.000000 
						CHANNELS 3 Zrotation Xrotation Yrotation
						JOINT rHand
						{
							OFFSET -8.370511 0.000000 0.000000 
							CHANNELS 3 Zrotation Xrotation Yrotation
							End Site
							{
								OFFSET -4.083176 0.000000 0.000000 
							}
						}
					}
				}
			}
		}
	}
	JOINT lThigh
	{
		OFFSET 5.308129 -1.633274 1.361059 
		CHANNELS 3 Zrotation Xrotation Yrotation
		JOINT lShin
		{
			OFFSET -2.041588 -20.007561 0.000000 
			CHANNELS 3 Zrotation Xrotation Yrotation
			JOINT lFoot
			{
				OFFSET 0.000000 -19.190928 -1.224953 
				CHANNELS 3 Zrotation Xrotation Yrotation
				End Site
				{
					OFFSET 0.000000 -2.449906 4.627600 
				}
			}
		}
	}
	JOINT rThigh
	{
		OFFSET -5.308129 -1.633274 1.361059 
		CHANNELS 3 Zrotation Xrotation Yrotation
		JOINT rShin
		{
			OFFSET 2.041588 -20.007561 0.000000 
			CHANNELS 3 Zrotation Xrotation Yrotation
			JOINT rFoot
			{
				OFFSET 0.000000 -19.190928 -1.224953 
				CHANNELS 3 Zrotation Xrotation Yrotation
				End Site
				{
					OFFSET 0.000000 -2.449906 4.627600 
				}
			}
		}
	}
}
MOTION
Frames: 13
Frame Time: 0.033333
0.000456 46.235577 0.142253 -3.529714 8.987089 0.005190 3.442833 3.187608 -6.920186 7.021048 2.946527 -5.977956 -0.009766 -0.019533 -0.000003 -1.742299 -9.429312 9.411444 1.937015 -0.385289 -0.985786 -74.066414 21.289148 -13.358361 41.826530 5.136601 -81.352798 13.001174 -4.665136 -8.092999 -1.476852 1.956948 -7.471712 68.553467 13.597832 -12.474185 -27.702070 2.671010 82.496727 -12.229063 -4.519978 4.943741 3.389879 -2.280235 0.865884 -20.128345 87.134056 18.527193 -8.828549 27.547392 7.336998 6.869727 -28.828835 -5.396131 -0.406256 9.448763 -3.376827 2.138932 5.635501 2.024434 
-0.007646 45.598236 0.142253 -6.431163 10.248975 -1.147051 4.281083 4.547874 -2.595944 11.387378 0.612698 -0.943712 0.263672 -0.117192 -0.214305 -6.591773 -8.809490 3.839618 -12.937146 -0.794581 4.482657 -66.082336 33.030182 -2.026904 36.913048 14.785542 -68.539818 17.333609 -4.750161 -6.927037 17.970243 2.071256 3.186550 52.122540 3.933434 -4.453871 -29.723808 -1.784168 90.390015 -5.339733 -8.242622 -2.816710 8.147553 -15.984684 3.015787 -166.792038 73.091293 166.006851 -5.750117 16.732048 10.330212 11.387660 -27.301489 -0.673723 -3.763249 33.952740 0.737839 -3.675318 -15.687672 -0.551367 
-0.007646 46.072159 0.142253 -3.931978 13.796821 -2.694375 2.296309 1.990593 1.297538 8.931143 -1.977698 3.876704 -0.000000 0.302732 -0.527344 -5.684680 -8.950623 -1.775956 -5.865968 4.123776 8.356179 -76.957565 27.652164 21.322485 45.758789 23.114689 -66.182373 19.054018 -4.751592 6.825419 6.054823 -1.188127 16.079826 58.768291 0.374571 11.963153 -20.326324 -5.607256 102.620201 -5.056783 -5.681687 -1.928618 4.330736 -39.522778 -1.614148 -172.313965 67.818161 171.636581 -6.874501 13.941727 12.479683 7.583248 -15.280705 -0.709951 -2.595178 35.559166 0.389954 -0.359370 -16.231878 0.775232 
-0.007652 47.975956 0.142253 0.232290 14.775270 -7.168573 0.292969 0.048826 5.390427 4.777780 -1.810096 6.988017 -0.058595 -0.322274 -0.185877 -5.220275 -6.603601 -4.937911 7.638455 10.648992 12.194692 -87.555786 28.158640 26.270857 45.250793 21.745340 -66.881935 20.963564 -4.918532 5.841827 -3.329736 -9.264793 19.775625 59.732140 17.325893 29.756821 -25.141933 -11.108874 108.986015 -2.770274 -3.525331 6.928888 1.511821 -53.534840 -2.162483 -149.250320 84.665230 150.092819 -3.349308 8.209933 13.459377 2.864522 3.741536 0.295392 -2.970696 15.566076 2.166818 -4.521266 9.959064 4.706619 
-0.007646 49.584969 0.142253 3.091550 14.120870 -11.750511 -3.408203 0.038994 12.990601 5.062330 -2.198431 10.809937 -0.048828 -0.195317 -0.263838 -6.777822 -6.177565 -13.077640 12.390560 11.278213 11.467340 -85.983582 34.172390 30.929346 46.726631 17.455759 -71.467018 23.453552 -4.793987 10.043161 -9.650812 -12.726588 19.770613 56.150784 21.721321 30.783129 -23.770979 -10.222490 108.558128 -19.132982 -4.618791 8.805334 -1.234685 -60.098640 0.242987 4.812099 74.654709 0.947277 -4.143884 -14.267755 11.475237 -3.418000 16.300325 7.152319 0.734475 17.340452 0.421648 -3.679820 11.377758 -2.543936 
-0.007646 49.317566 0.142253 3.347125 13.688421 -12.287063 -3.105485 -0.185276 12.958699 4.073928 -1.636480 13.016930 -0.068359 -0.195318 -0.263905 -6.217398 -6.135850 -14.524568 13.650022 11.662294 12.514973 -84.758255 37.044643 30.953644 47.244053 15.859462 -72.931961 23.332893 -4.996298 9.684864 -10.128587 -9.968535 17.572952 61.900623 22.290903 28.577097 -23.761839 -9.847820 107.750702 -18.074343 -4.803410 8.863111 2.212790 -54.367668 5.515585 0.892829 36.755447 3.896435 -8.212805 -16.272486 3.996547 -2.356956 11.271737 8.226019 0.301256 37.559410 0.328201 -2.677110 31.972197 0.733828 
-0.007646 48.233463 0.142253 2.814102 13.665747 -10.391920 -1.690120 -1.610629 12.110395 1.406296 -0.468604 10.870882 -0.097657 -0.195315 -0.273771 -3.468807 -6.384862 -13.979968 11.010733 10.462590 12.230542 -81.306412 38.051350 21.925200 46.160492 19.474634 -69.329597 26.964710 -5.136108 9.698445 -6.489424 -7.060537 15.031332 70.363243 22.334160 13.818543 -24.689743 -6.684439 100.931770 -19.330891 -4.900027 11.074673 -1.206950 -37.561741 5.274343 -1.030585 0.885507 4.027696 -14.140410 -1.831281 2.066072 -1.921466 5.821232 4.338655 0.558801 63.994492 -0.065723 -2.530198 16.088259 -0.891595 
-0.007646 46.790962 0.142253 2.818359 14.016889 -7.850652 -2.543478 -3.375589 8.726659 0.126983 1.259764 10.260897 -0.117189 -0.195314 -0.273856 -0.757137 -6.708406 -13.057200 6.719090 7.132382 5.524385 -77.005943 34.083298 15.745570 41.320129 21.202560 -64.958900 27.007605 -5.011243 9.907354 -3.748069 -3.553831 12.408518 75.696007 17.638927 3.853292 -34.726318 -6.163239 95.623421 -12.351723 -4.379352 12.526343 -3.680935 -36.989666 4.040934 -1.372110 8.120281 3.628137 -3.597181 0.381983 2.503896 -1.397801 -0.321268 3.576661 9.086198 76.905586 -9.195450 -2.243856 19.311255 -0.298920 
-0.007646 46.151188 0.142253 6.864856 13.655116 -3.424871 -9.314488 -2.341795 5.952332 1.211107 0.956817 3.768836 -0.107422 -0.166019 -0.273749 2.327129 -5.981428 -9.229629 -3.994571 5.352718 -1.262027 -55.941681 28.334904 -7.549495 49.776752 18.882706 -71.939392 23.882946 -4.933897 7.325104 6.964599 -2.824240 4.214073 73.111313 20.299438 -9.647338 -24.994955 -2.814914 92.804268 -10.744103 -4.365773 3.659352 -11.400431 -31.657352 -2.770411 -1.667243 36.093597 2.537207 0.676146 -17.047365 1.962453 -4.938001 -17.256899 -1.532294 174.588913 76.730522 -175.217499 -6.145858 19.527622 1.511397 
-0.007646 45.842949 0.142253 6.328143 10.552011 5.516252 -10.643322 2.284272 2.343220 2.710783 3.716553 -8.778898 -0.107422 -0.087892 -0.215009 5.253816 -7.799533 -0.124894 -11.873394 5.101267 -2.693811 -41.908703 12.752149 -27.722612 45.776188 3.764362 -83.432953 26.431211 -5.317070 1.181009 8.534320 -2.354016 1.566099 70.878357 26.351765 -21.054474 -12.461880 0.791470 83.583321 4.134094 -3.534683 13.782978 -13.006975 -17.731590 -7.749530 -2.587868 39.655964 0.429619 -1.148843 -20.811165 2.307234 -10.893872 -28.406271 -10.523351 173.580765 72.530937 -174.054657 -9.919811 8.513972 0.297951 
-0.007646 47.046616 0.142253 0.858985 12.117805 9.067859 -6.515045 1.174014 -5.921731 4.541236 3.796676 -13.289613 -0.107422 -0.068361 -0.185675 5.720291 -8.697378 9.149065 -3.809477 5.093132 -8.522822 -54.681293 1.809154 -36.016850 42.765369 -7.398457 -94.894295 27.147791 -5.288414 0.432838 1.711090 -0.065245 -5.768912 71.782295 29.562332 -26.135815 -22.816704 1.231491 84.265106 9.360641 -2.727126 24.179718 -5.303983 -2.565925 -9.139252 -1.712569 28.583160 -0.971927 -0.797300 -2.288772 1.101269 -9.186563 -47.507343 -10.941123 171.281204 76.807869 -169.946640 -8.661623 6.188499 -4.855106 
-0.007646 48.881813 0.142253 -1.356341 13.590073 9.615410 -3.671881 -0.116948 -12.995786 4.083190 4.188600 -11.558502 -0.097656 -0.068363 -0.166133 4.252751 -8.219805 11.996552 8.324775 3.125498 -9.866487 -47.665085 1.333801 -43.833244 51.368294 -17.772034 -100.722862 36.375206 -5.623054 5.380945 -1.447062 1.477893 -6.347281 76.732681 30.106436 -31.573553 -25.212139 1.621003 83.901962 5.136195 -3.199428 23.089048 -0.560916 16.506754 -7.071300 -0.257272 7.312776 -0.306278 0.031370 29.957674 0.439401 -8.616174 -58.861340 -14.486479 2.385565 89.295288 -4.004269 -8.402613 5.772642 -5.336175 
-0.007646 50.031254 0.142253 -3.533143 14.660777 12.457202 -1.241028 -2.050300 -17.612982 2.959016 4.661768 -11.266096 -0.087891 -0.087898 -0.166151 4.137951 -7.597561 14.005759 17.717457 -0.663034 -15.540476 -55.782047 5.304105 -44.951420 48.883274 -17.886908 -102.045937 31.642443 -5.396399 7.540248 -5.088882 1.843970 -10.651962 81.297920 31.628904 -34.590210 -38.680885 9.515273 75.551064 2.724501 -3.524312 17.712118 1.586628 10.332197 -10.821072 -2.005927 41.275017 0.386538 -1.703382 28.149849 2.554699 -11.980996 -60.709152 -22.116785 -2.050548 51.723347 -4.000562 0.901662 3.198972 -2.217887 
